# xmcd
#
# Track frame offsets:
#	150
#	13097
#	28084
#	42007
#	57156
#	71707
#	86099
#	99724
#	111274
#	123290
#	134636
#	147158
#	159958
#	173222
#	185991
#	215074
#	227525
#	238738
#	251008
#	263748
#	281254
#	293019
#	302321
#	314815
#
# Disc length: 4360 seconds
#
# Revision: 0
# Processed by: cddbd v1.5.2PL0 Copyright (c) Steve Scherf et al.
# Submitted via: EZCDAudioConverter 1.3.3.1
#
DISCID=64110618
DTITLE=Ray charles - Hallelujah I love her so!
DYEAR=1900
DGENRE=
TTITLE0=Ain't that love
TTITLE1=Drown in my own tears
TTITLE2=Come back baby
TTITLE3=Sinner's prayer
TTITLE4=Funny (But I still love you)
TTITLE5=Losing hand
TTITLE6=A fool for You
TTITLE7=Hallelujah I love her so
TTITLE8=Mess around
TTITLE9=This little girl of mine
TTITLE10=Mary Ann
TTITLE11=Greenbacks
TTITLE12=Don't You know
TTITLE13=I got a woman
TTITLE14=What'd I say
TTITLE15=Jumpin' in the mornin'
TTITLE16=You be my baby
TTITLE17=Tell me how do you feel
TTITLE18=What kind of a man are You
TTITLE19=Rockhouse (Parts 1 and 2)
TTITLE20=Roll with my baby
TTITLE21=Tell all the world about You
TTITLE22=My bonnie
TTITLE23=That's enough
EXTD=
EXTT0=
EXTT1=
EXTT2=
EXTT3=
EXTT4=
EXTT5=
EXTT6=
EXTT7=
EXTT8=
EXTT9=
EXTT10=
EXTT11=
EXTT12=
EXTT13=
EXTT14=
EXTT15=
EXTT16=
EXTT17=
EXTT18=
EXTT19=
EXTT20=
EXTT21=
EXTT22=
EXTT23=
PLAYORDER=
